HIERARCHY
ROOT pelvis
{
  OFFSET 0 100 0
  CHANNELS 6 Xposition Yposition Zposition Zrotation Xrotation Yrotation
  JOINT pelvis_right_femur
  {
    OFFSET -10.78128 -3.44521 -0.5502486
    CHANNELS 3 Zrotation Xrotation Yrotation
    JOINT right_femur_tibia
    {
      OFFSET -0.8047443 -44.0398 -0.1307829
      CHANNELS 3 Zrotation Xrotation Yrotation
      JOINT right_tibia_foot
      {
        OFFSET 3.006224 -47.83518 -5
        CHANNELS 3 Zrotation Xrotation Yrotation
        End Site
        {
          OFFSET 0 -5 15
        }
      }
    }
  }
  JOINT pelvis_left_femur
  {
    OFFSET 10.78128 -3.44521 -0.5502486
    CHANNELS 3 Zrotation Xrotation Yrotation
    JOINT left_femur_tibia
    {
      OFFSET 0.8047443 -44.0398 -0.1307829
      CHANNELS 3 Zrotation Xrotation Yrotation
      JOINT left_tibia_foot
      {
        OFFSET -4.370144 -48.10324 -4.275266
        CHANNELS 3 Zrotation Xrotation Yrotation
        End Site
        {
          OFFSET 0 -5 15
        }
      }
    }
  }
  JOINT pelvis_spine1
  {
    OFFSET 0 6.468898 -3.129235
    CHANNELS 3 Zrotation Xrotation Yrotation
    JOINT spine1
    {
      OFFSET 0 23.15396 4.99043
      CHANNELS 3 Zrotation Xrotation Yrotation
      JOINT spine2
      {
        OFFSET 0 20.79997 -5.064912
        CHANNELS 3 Zrotation Xrotation Yrotation
        JOINT neck
        {
          OFFSET 0 14.38658 9.616178
          CHANNELS 3 Zrotation Xrotation Yrotation
          End Site
          {
            OFFSET 0 20 0
          }
        }
      }
      JOINT right_manubrium
      {
        OFFSET -5.722621 16.35077 3.967754
        CHANNELS 3 Zrotation Xrotation Yrotation
        JOINT right_clavicle
        {
          OFFSET -13.16364 1.694482 -4.693211
          CHANNELS 3 Zrotation Xrotation Yrotation
          JOINT right_humerus
          {
            OFFSET -28.5034 -0.3100689 -2.792744
            CHANNELS 3 Zrotation Xrotation Yrotation
            JOINT right_radius
            {
              OFFSET -25.15693 0.02248979 -1.271978
              CHANNELS 3 Zrotation Xrotation Yrotation
              End Site
              {
                OFFSET -15 0 0
              }
            }
          }
        }
      }
      JOINT left_manubrium
      {
        OFFSET 5.722621 16.35077 3.967754
        CHANNELS 3 Zrotation Xrotation Yrotation
        JOINT left_clavicle
        {
          OFFSET 13.16364 1.694482 -4.693211
          CHANNELS 3 Zrotation Xrotation Yrotation
          JOINT left_humerus
          {
            OFFSET 29.39168 -1.063119 -2.237045
            CHANNELS 3 Zrotation Xrotation Yrotation
            JOINT left_radius
            {
              OFFSET 24.59957 -0.9528479 0.9047498
              CHANNELS 3 Zrotation Xrotation Yrotation
              End Site
              {
                OFFSET 15 -0 -0
              }
            }
          }
        }
      }
    }
  }
}
MOTION
Frames: 9
Frame Time: 0.0416666666667
0 103.5113 0 1.926065 -0.2915915 -0.09966089 1.954246 -13.89062 10.94173 -0 38.90017 -0 -6.237777 -16.93021 -2.493463 -7.668625 9.740137 -23.73924 -0 5.256094 -0 13.98866 -13.01477 29.482 -4.773981 -4.227977 5.289514 2.947414 9.896292 -7.713787 1.237385 21.66849 6.688528 3.17378 -24.83456 9.4763 7.11573 -20.10114 11.4096 84.09542 40.15447 -16.99791 -0 0 17.24823 -6.212581 7.228365 4.35503 5.03441 -18.14098 -0.9472769 -91.67382 20.19651 20.79294 0 0 -12.81071 14.22488 13.1357 -3.243477
0.4129628 104.1792 1.703719 1.402545 0.1072558 -0.142318 3.119733 -17.40386 10.72486 -0 38.47362 -0 -6.315168 -15.54579 -2.57438 -7.409097 9.825948 -23.04074 -0 4.862625 -0 14.02273 -14.05169 29.1169 -4.448041 -3.658472 5.072663 2.982993 9.999068 -7.794617 1.283248 21.4366 6.714088 3.20458 -25.04659 9.520571 7.07597 -20.02527 11.57493 84.31803 39.75824 -17.21892 -0 0 16.95622 -6.143946 7.435713 4.273331 5.53269 -18.7019 -1.006186 -91.51297 20.16083 20.37655 0 0 -13.92177 14.93055 13.1779 -3.836017
0.7275404 104.7073 3.667038 0.1854401 -0.4380679 0.0521767 4.241535 -21.24157 8.506521 -0 38.13239 -0 -6.983539 -10.90226 -2.841516 -6.409428 10.43789 -21.96335 -0 4.577952 -0 9.840195 -17.01874 26.16482 -3.380294 -2.590619 3.898381 2.609413 9.875975 -7.454341 1.584911 21.97216 7.016816 3.186605 -25.20579 9.920992 5.985678 -19.67139 11.75994 85.79015 35.75302 -18.05445 -0 0 14.98088 -8.990715 9.190056 5.801654 5.74579 -19.76282 -1.978204 -92.43094 24.63641 20.59737 0 0 -16.0882 10.53137 16.39442 2.197733
1.034056 105.1794 5.920844 -0.2178857 -0.1271359 0.3001468 4.891244 -23.84972 7.752514 -0 36.07652 -0 -7.325385 -8.77151 -2.456555 -6.125075 10.50544 -20.92167 -0 5.035239 -0 9.66386 -17.50321 25.32593 -2.999904 -2.197252 3.734031 2.617361 10.1341 -7.49789 1.583849 21.76518 7.069837 3.255747 -25.48375 9.892662 5.637904 -19.66361 11.8572 86.33735 35.04398 -18.38761 -0 0 14.28843 -9.633967 9.286426 6.132228 6.097526 -20.47574 -2.227674 -91.80606 23.76563 19.85116 0 0 -17.24148 11.55133 16.03242 1.178247
1.362808 105.4936 8.721855 -0.5204098 -0.03386783 0.6222344 5.170153 -26.46552 5.838534 -0 32.02804 -0 -8.155222 -4.904495 -1.41147 -5.884763 10.35572 -18.99448 -0 6.08353 -0 9.80392 -17.61339 23.99029 -2.549038 -1.806123 3.58722 2.548966 10.85022 -7.517322 1.455296 21.53552 7.160855 3.390455 -25.78989 9.638276 4.807833 -19.85768 12.07494 87.52694 33.45233 -18.95095 -0 0 12.87549 -11.42015 9.17296 7.078955 6.554171 -21.86811 -2.928208 -90.38705 21.28073 18.30137 0 0 -19.15515 13.73483 14.97885 -1.328621
1.747502 105.6006 12.0354 -0.3223944 -0.1512191 0.9720716 4.806512 -27.93691 3.457577 -0 27.13222 -0 -8.902885 -1.710321 -0.03686608 -6.057116 10.1026 -16.96471 -0 7.000654 -0 10.95966 -17.14868 23.0863 -2.432249 -1.682213 3.697098 2.435876 11.76771 -7.567365 1.131538 21.31016 7.224119 3.581254 -25.67332 9.057839 4.009745 -20.17116 12.33497 88.71284 32.19111 -19.54044 -0 0 11.54894 -13.20482 8.610074 7.900466 7.105772 -23.4353 -3.758916 -88.57516 17.38232 16.32035 0 0 -21.45948 16.96279 13.07997 -5.507944
2.203168 105.3917 15.92894 0.3385588 -0.5384797 1.326472 3.844617 -28.90081 -0.03134039 -0 20.34643 -0 -9.563459 1.303817 1.669392 -6.564117 10.14693 -14.4509 -0 7.72152 -0 12.27519 -16.75255 21.91249 -2.53231 -1.710933 3.930413 2.185966 12.7667 -7.664672 0.5634511 21.1438 7.307445 3.933119 -24.83475 7.976259 3.087969 -20.43463 12.58042 90.0851 30.7798 -20.47409 -0 0 10.07775 -15.36629 7.675045 8.625186 7.895682 -25.43331 -4.919121 -86.45626 12.62909 13.78616 0 0 -25.01918 20.30113 10.62404 -10.33532
2.723853 104.8052 20.42085 1.366315 -1.252755 1.662197 2.5015 -29.16214 -4.189709 -0 13.03493 -0 -10.02134 3.78225 3.306893 -7.27378 10.73123 -11.70776 -0 8.048894 -0 13.06854 -16.79777 20.43953 -2.772326 -1.90421 4.178381 1.744611 13.55466 -7.826534 -0.1805082 21.08333 7.392093 4.549425 -23.08587 6.37059 2.211083 -20.46843 12.68079 91.26355 29.3142 -21.63568 -0 0 8.898043 -17.72565 6.593482 8.985386 8.901383 -27.54135 -6.256111 -84.50747 8.054052 11.12533 0 0 -29.30296 22.79075 8.475813 -14.61648
3.261903 103.8941 25.60438 2.375525 -2.300981 1.950258 1.329869 -28.76595 -8.338463 -0 6.467364 -0 -10.29891 5.945611 4.37814 -7.849903 12.13889 -8.86902 -0 8.917446 -0 12.38217 -17.45594 18.39419 -2.843338 -2.299483 4.237824 1.133477 13.8961 -8.052217 -0.8496311 21.20418 7.375771 5.359569 -20.65472 4.495399 1.299838 -20.09474 12.48997 92.10152 27.24043 -22.95231 -0 0 8.098005 -20.34829 5.9315 8.965413 9.94477 -29.41071 -7.586431 -83.07649 4.995496 8.706017 0 0 -33.36672 23.6368 7.937879 -16.96124
